<?xml version="1.0" encoding="UTF-8" standalone="no"?>
<svg
   xmlns:dc="http://purl.org/dc/elements/1.1/"
   xmlns:cc="http://creativecommons.org/ns#"
   xmlns:rdf="http://www.w3.org/1999/02/22-rdf-syntax-ns#"
   xmlns:svg="http://www.w3.org/2000/svg"
   xmlns="http://www.w3.org/2000/svg"
   xmlns:sodipodi="http://sodipodi.sourceforge.net/DTD/sodipodi-0.dtd"
   xmlns:inkscape="http://www.inkscape.org/namespaces/inkscape"
   version="1.1"
   id="Calque_1"
   x="0px"
   y="0px"
   viewBox="0 0 127.61141 158.53323"
   xml:space="preserve"
   sodipodi:docname="Astronaute.svg"
   width="127.61141"
   height="158.53323"
   inkscape:version="1.1-dev (ddb55ca, 2020-02-02)"><metadata
   id="metadata294"><rdf:RDF><cc:Work
       rdf:about=""><dc:format>image/svg+xml</dc:format><dc:type
         rdf:resource="http://purl.org/dc/dcmitype/StillImage" /><dc:title></dc:title></cc:Work></rdf:RDF></metadata><defs
   id="defs292">
	
	
</defs><sodipodi:namedview
   inkscape:rotation="20"
   pagecolor="#ffffff"
   bordercolor="#666666"
   borderopacity="1"
   objecttolerance="10"
   gridtolerance="10"
   guidetolerance="10"
   inkscape:pageopacity="0"
   inkscape:pageshadow="2"
   inkscape:window-width="686"
   inkscape:window-height="480"
   id="namedview290"
   showgrid="false"
   inkscape:zoom="2.3579016"
   inkscape:cx="-0.74281115"
   inkscape:cy="101.32279"
   inkscape:window-x="0"
   inkscape:window-y="0"
   inkscape:window-maximized="0"
   inkscape:current-layer="Calque_1"
   fit-margin-top="0"
   fit-margin-left="0"
   fit-margin-right="0"
   fit-margin-bottom="0"
   inkscape:pagecheckerboard="true" />
<style
   type="text/css"
   id="style171">
	.st0{fill:#957452;}
	.st1{fill:#88573C;}
	.st2{fill:#D6C49A;}
	.st3{fill:#E52627;}
	.st4{fill:#CDCCCC;}
	.st5{fill:#264395;}
	.st6{fill:#1E274A;}
	.st7{fill:#EC6625;}
	.st8{fill:#020203;}
	.st9{fill:#E52521;}
	.st10{fill:#808181;}
	.st11{fill:#FFE324;}
	.st12{fill:#3F4244;}
	.st13{fill:#009F4A;}
	.st14{fill:#343434;}
	.st15{fill:#78170E;}
	.st16{fill:#F0E9D5;}
	.st17{fill:#272531;}
	.st18{fill:#222B56;}
	.st19{fill:#9BD2CC;}
	.st20{fill:#83B143;}
	.st21{fill:#1B1B1B;}
	.st22{fill:#FFFFFF;}
	.st23{fill:#DDD6C3;}
	.st24{fill:#997F64;}
	.st25{fill:#77684B;}
	.st26{fill:#A89877;}
	.st27{fill:#B4B4B4;}
	.st28{fill:#DDCEBB;}
	.st29{fill:#9A2A1A;}
	.st30{fill:#5E1C0C;}
	.st31{fill:#F1CA43;}
	.st32{fill:#A57B46;}
	.st33{fill:#F18538;}
	.st34{fill:#F2AC64;}
	.st35{fill:#FAB42D;}
	.st36{fill:#46494E;}
	.st37{fill:#CF875E;}
	.st38{fill:#E7E6E6;}
	.st39{fill:#1A181D;}
	.st40{fill:#637644;}
	.st41{fill:#9F1E29;}
	.st42{fill:#F9B03D;}
	.st43{fill:#0D71B9;}
	.st44{fill:#E52629;}
	.st45{fill:#676767;}
	.st46{fill:#30358C;}
	.st47{fill:#9A9999;}
	.st48{fill:#3F4798;}
	.st49{fill:#2DABE3;}
	.st50{fill:#C1292E;}
	.st51{fill:#F2F2F2;}
	.st52{fill:#AA7C4C;}
	.st53{fill:#D6A573;}
	.st54{fill:#29ACE1;}
	.st55{fill:#88C05E;}
	.st56{fill:#F39323;}
	.st57{fill:#EB5B28;}
	.st58{fill:#B85965;}
	.st59{fill:#A67D52;}
	.st60{fill:#8C633A;}
	.st61{fill:#009245;}
	.st62{fill:#066938;}
	.st63{fill:#7D252D;}
	.st64{fill:#95D3E3;}
	.st65{fill:#603914;}
	.st66{fill:#EFC9AF;}
	.st67{fill:#D987B8;}
	.st68{fill:#8FC14D;}
	.st69{fill:#C69C6C;}
	.st70{fill:#2BADE1;}
	.st71{fill:#A4C958;}
	.st72{fill:#754D24;}
	.st73{fill:#35AE73;}
	.st74{fill:#E0B99E;}
	.st75{fill:#BDCCD4;}
	.st76{fill:#0C0D0D;}
	.st77{fill:#F4E152;}
	.st78{fill:#1E1911;}
	.st79{fill:#A1BD4F;}
	.st80{fill:#CBE6DC;}
	.st81{fill:#B5DCCE;}
	.st82{fill:#1F1D1B;}
	.st83{fill:#746458;}
	.st84{fill:#C7B29A;}
	.st85{fill:#998675;}
	.st86{fill:#428540;}
	.st87{fill:#E3E5E3;}
	.st88{fill:#161617;}
	.st89{fill:#1E1F1E;}
	.st90{fill:#474847;}
	.st91{fill:#191A19;}
	.st92{fill:#4B2C15;}
	.st93{fill:#92552A;}
	.st94{fill:#7EA847;}
	.st95{fill:#D59E2B;}
	.st96{fill:#807E79;}
	.st97{fill:#E5B744;}
	.st98{fill:#8EC045;}
	.st99{fill:#3B569A;}
	.st100{fill:#A1B7E0;}
	.st101{fill:#8FC9CC;}
	.st102{fill:#9ED1CA;}
	.st103{fill:#81AAA9;}
	.st104{fill:#E1783D;}
	.st105{fill:#64328A;}
	.st106{fill:#DEDEA5;}
	.st107{fill:#754997;}
	.st108{fill:#EE6F43;}
	.st109{fill:#A6CB67;}
	.st110{fill:#8FB7C0;}
	.st111{fill:#E2E1DF;}
	.st112{fill:#2C3E70;}
	.st113{fill:#D9BF96;}
	.st114{fill:#9C6941;}
	.st115{fill:#61605E;}
	.st116{fill:#9C9A99;}
	.st117{fill:#245F3D;}
	.st118{fill:#191713;}
	.st119{fill:#C39A62;}
	.st120{fill:#A17C4F;}
	.st121{fill:#F39200;}
	.st122{fill:#432918;}
	.st123{fill:#B17F4A;}
	.st124{fill:#FFCE1E;}
	.st125{fill:#BE1622;}
	.st126{fill:#3AAA35;}
	.st127{fill:#911825;}
	.st128{fill:#009FE3;}
	.st129{fill:#E94E1B;}
	.st130{fill:#FFCC03;}
	.st131{fill:#95C11F;}
	.st132{fill:#00A19A;}
	.st133{fill:#683C11;}
	.st134{fill:#878787;}
	.st135{fill:#634E42;}
	.st136{fill:#CBBBA0;}
	.st137{fill:#7B5B41;}
	.st138{fill:#493E36;}
	.st139{fill:#78A62C;}
	.st140{fill:#2C8535;}
	.st141{fill:#F9B233;}
	.st142{fill:none;}
	.st143{fill:#CA9E67;}
	.st144{fill:#E30613;}
	.st145{fill:#C6C6C6;}
	.st146{fill:#575756;}
	.st147{fill:#7B6A58;}
	.st148{fill:#A3C5D7;}
	.st149{fill:#332C25;}
	.st150{fill:#29235C;}
	.st151{fill:#E6332A;}
	.st152{fill:#738D93;}
	.st153{fill:#C87B31;}
	.st154{fill:#5BBCA7;}
	.st155{fill:#EF786F;}
	.st156{fill:#EE8D9E;}
	.st157{fill:#A74B56;}
	.st158{fill:#E72D7B;}
	.st159{fill:#E84138;}
	.st160{fill:#3B2315;}
	.st161{fill:#8EC044;}
	.st162{fill:#A1C74B;}
	.st163{fill:#231F20;}
	.st164{fill:#F6D9A7;}
	.st165{fill:#F4A5A6;}
	.st166{fill:#6E6F70;}
	.st167{fill:#F8AF41;}
	.st168{fill:#B79C19;}
	.st169{fill:#EFD101;}
	.st170{fill:#207A97;}
	.st171{fill:#20ACE3;}
	.st172{fill:#C51618;}
	.st173{fill:#C19446;}
	.st174{fill:#9E599F;}
	.st175{fill:#CD95C2;}
	.st176{fill:#F29A26;}
	.st177{fill:#FCCE8D;}
	.st178{fill:#F39B85;}
	.st179{fill:#E52628;}
	.st180{fill:#6BB52D;}
</style>
<g
   id="g285"
   transform="translate(-226.10658,-225.41024)">
		
		<g
   inkscape:groupmode="layer"
   id="layer1"
   inkscape:label="astronaut"
   style="display:inline"><g
     id="g259">
			
			
			
			
			
		<g
   id="g403"
   transform="translate(3.6786247,9.6981924)"><g
     transform="translate(1.0032613,11.035874)"
     id="g375"><path
       inkscape:connector-curvature="0"
       id="path215"
       d="m 344.9,316.3 c -4.8,-12.5 -16.9,4.3 -20.5,5.7 -1.3,0.5 -3.3,-0.4 -5.4,-2.4 -1.1,-1 -2.3,-2.3 -3.4,-3.8 -2.7,-3.6 -5.4,-8.3 -7.4,-13.5 0,0 0,0 0,0 0,-0.1 -0.1,-0.3 -0.1,-0.4 l -7.9,-20.7 c 4.4,-3.2 10.2,-8.3 15.2,-12.9 1.6,-1.5 3,-2.9 4.4,-4.2 2.8,-2.7 4.8,-4.9 5.6,-5.9 2.5,-3.4 -4.8,-8.1 -7.5,-4.6 -0.8,1.1 -2.4,2.8 -4.5,4.7 -1.1,1.1 -2.4,2.3 -3.8,3.5 -3.5,3.1 -7.8,6.4 -12.3,9.1 5.3,-6.4 8.4,-14.4 8.6,-22.7 l 3.2,-1.2 c 1,-0.4 1.5,-1.5 1.1,-2.5 l -8.5,-22.4 c -0.3,-0.8 -1.2,-1.3 -2.1,-1.2 -1.9,-5.1 -3.9,-10.2 -5.8,-15.3 -0.7,-1.8 -3.4,-0.7 -2.7,1 1.9,5.1 3.9,10.2 5.8,15.2 l -0.7,0.3 c -9.9,-10.8 -25.8,-15 -40.3,-9.5 -14.5,5.5 -23.5,19.2 -23.8,33.9 l -2.7,1 c -1,0.4 -1.5,1.5 -1.1,2.5 l 8.5,22.4 c 0.4,1 1.5,1.5 2.5,1.1 l 2.8,-1.1 c 6,6.4 14.1,10.4 22.8,11.4 v 0 c -4.6,0.7 -9.4,1.1 -13.6,1.1 -1.9,0 -3.6,0 -5.2,-0.1 -2.9,-0.1 -5.2,-0.3 -6.5,-0.6 -4.3,-0.8 -6.7,7.6 -2.5,8.5 1.2,0.3 4.3,0.5 8.1,0.7 1.9,0.1 3.9,0.2 6.1,0.2 5.7,0.2 12.2,0.1 17.3,-0.2 l 7.8,20.5 c 0.1,0.1 0.1,0.3 0.2,0.4 0,0 0,0 0,0 2,5.2 3.1,10.5 3.4,15 0.1,1.9 0.1,3.6 0,5.1 -0.3,2.9 -1.1,4.9 -2.5,5.4 -3.7,1.4 -23.9,-3.2 -19.2,9.4 4.8,12.5 7.6,11.8 32.4,2.4 6.5,-2.5 7.3,-10.5 6.1,-19 -0.3,-2.1 -0.7,-4.2 -1.2,-6.3 -0.5,-2.1 -1.1,-4.1 -1.6,-6 l 5.3,-2 c 0.8,1.8 1.8,3.7 2.8,5.6 1,1.9 2.1,3.7 3.2,5.5 4.7,7.2 10.7,12.7 17.2,10.2 24.5,-9.4 27.1,-10.8 22.4,-23.3 z"
       class="st4" /><g
       id="g221">
				<path
   inkscape:connector-curvature="0"
   id="path217"
   d="m 260,353.6 c 2.9,7.6 4.1,10.2 6.6,9.5 2.5,-0.7 27.4,-9.5 28.9,-10.1 1.5,-0.6 1.3,-9.1 1.4,-11.9 -15,6.3 -36.9,12.5 -36.9,12.5 z"
   class="st47" />
				<path
   inkscape:connector-curvature="0"
   id="path219"
   d="m 346.3,320.8 c 2.9,7.6 3.7,10.4 1.4,11.5 -2.3,1.1 -26.8,11.1 -28.3,11.7 -1.5,0.6 -7,-5.9 -9,-7.9 15.5,-5.4 35.9,-15.3 35.9,-15.3 z"
   class="st47" />
			</g><g
       id="g227">
				<path
   inkscape:connector-curvature="0"
   id="path223"
   d="m 296,237.7 c 0.4,1 0.7,2.1 1,3.1 0.3,1.1 0.5,2.3 0.7,3.4 1.7,12.9 -5.6,25.7 -18.2,30.5 -14.8,5.6 -31.3,-1.8 -36.9,-16.6 -5.6,-14.8 1.8,-31.3 16.6,-36.9 14.6,-5.7 31.1,1.7 36.8,16.5 z"
   class="st49" />
				<path
   inkscape:connector-curvature="0"
   id="path225"
   d="m 296.9,240.7 c 0.3,1.1 0.5,2.3 0.7,3.4 -5.7,5.2 -12,9.6 -18.9,13.1 -0.2,1.6 -1.6,3.2 -3.7,4 -2.7,1 -5.4,0.4 -6.1,-1.5 -0.7,-1.8 0.9,-4.1 3.6,-5.2 1.8,-0.7 3.6,-0.6 4.8,0.1 7.2,-3.6 13.7,-8.3 19.6,-13.9 z"
   class="st8" />
			</g><g
       id="g241">
				<path
   inkscape:connector-curvature="0"
   id="path229"
   d="m 295.3,326.3 c 0.5,2.1 0.9,4.2 1.2,6.3 l -16.8,1.8 c 0.1,-1.5 0.2,-3.2 0,-5.1 4.5,-0.5 10.9,-1.8 15.6,-3 z"
   class="st50" />
				<path
   inkscape:connector-curvature="0"
   id="path231"
   d="m 301.8,323.9 c 1,1.9 2.1,3.7 3.2,5.5 l 13.8,-9.8 c -1.1,-1 -2.3,-2.3 -3.4,-3.8 -3.7,2.5 -9.3,5.8 -13.6,8.1 z"
   class="st50" />
				<path
   inkscape:connector-curvature="0"
   id="path233"
   d="m 321.8,257 c -5.3,-4.4 -7.7,-10.7 -4.5,-11.9 3.2,-1.2 4.5,2.7 6,2.6 1.5,-0.1 2.1,-8.6 7.8,-5.4 10.5,5.2 -1.1,21.4 -9.3,14.7 z"
   class="st50" />
				<path
   inkscape:connector-curvature="0"
   id="path235"
   d="m 319.6,264 c -1.3,1.3 -2.8,2.7 -4.4,4.2 -2,-2.2 -4.3,-4.7 -5.9,-6.6 1.4,-1.2 2.7,-2.4 3.8,-3.5 2.5,2.4 4.7,4.3 6.5,5.9 z"
   class="st50" />
				<path
   inkscape:connector-curvature="0"
   id="path237"
   d="m 238.7,289.6 c 1.1,-6.8 -1.4,-13.1 -4.5,-11.9 -3.2,1.2 -1.6,5 -2.7,5.9 -1.2,0.9 -7.3,-5 -9.4,1.1 -4.5,10.9 14.9,15.4 16.6,4.9 z"
   class="st50" />
				<path
   inkscape:connector-curvature="0"
   id="path239"
   d="m 245,293.4 c 1.9,0.1 3.9,0.2 6.1,0.2 0,-3 0.1,-6.4 0,-8.8 -1.9,0 -3.6,0 -5.2,-0.1 -0.2,3.4 -0.6,6.3 -0.9,8.7 z"
   class="st50" />
			</g><g
       id="g257">
				<path
   inkscape:connector-curvature="0"
   id="path243"
   d="m 306,297.6 -6.3,2.4 -2.9,-7.7 6.3,-2.4 c 1.4,-0.5 2.1,-2.1 1.6,-3.6 -0.5,-1.4 -2.1,-2.1 -3.6,-1.6 l -6.3,2.4 -2,-5.1 c -0.6,-1.6 -2.4,-2.4 -4,-1.8 l -13.1,5 c -1.6,0.6 -2.4,2.4 -1.8,4 l 2,5.1 -6.3,2.4 c -1.4,0.5 -2.1,2.1 -1.6,3.6 0.5,1.4 2.1,2.1 3.6,1.6 l 6.3,-2.4 2.9,7.7 -6.3,2.4 c -1.4,0.5 -2.1,2.1 -1.6,3.6 0.5,1.4 2.1,2.1 3.6,1.6 l 6.3,-2.4 1.2,3 c 0.6,1.6 2.4,2.4 4,1.8 l 13.1,-5 c 1.6,-0.6 2.4,-2.4 1.8,-4 l -1.2,-3 6.3,-2.4 c 1.4,-0.5 2.1,-2.1 1.6,-3.6 -0.5,-1.4 -2.1,-2.2 -3.6,-1.6 z"
   class="st47" />
				<g
   id="g255">
					<g
   id="g251">
						<circle
   id="circle245"
   r="2"
   cy="303.89999"
   cx="284.60001"
   class="st50" />
						<circle
   id="circle247"
   r="2"
   cy="302"
   cx="289.79999"
   class="st50" />
						<circle
   id="circle249"
   r="2"
   cy="299.89999"
   cx="295.20001"
   class="st50" />
					</g>
					<path
   inkscape:connector-curvature="0"
   id="path253"
   d="m 292.9,296.1 -9.2,3.5 c -1.4,0.5 -2.9,-0.2 -3.4,-1.5 l -2.3,-6.2 c -0.5,-1.4 0.2,-2.9 1.5,-3.4 l 9.2,-3.5 c 1.4,-0.5 2.9,0.2 3.4,1.5 l 2.3,6.2 c 0.6,1.3 -0.1,2.9 -1.5,3.4 z"
   class="st51" />
				</g>
			</g></g><ellipse
     ry="25.750374"
     rx="23.24222"
     cy="259.51025"
     cx="275.72964"
     id="path377"
     style="fill:#2dabe3;fill-opacity:1" /></g></g></g>
		
	</g>
</svg>
