<?xml version="1.0" encoding="UTF-8" standalone="no"?>
<svg
   xmlns:dc="http://purl.org/dc/elements/1.1/"
   xmlns:cc="http://creativecommons.org/ns#"
   xmlns:rdf="http://www.w3.org/1999/02/22-rdf-syntax-ns#"
   xmlns:svg="http://www.w3.org/2000/svg"
   xmlns="http://www.w3.org/2000/svg"
   xmlns:sodipodi="http://sodipodi.sourceforge.net/DTD/sodipodi-0.dtd"
   xmlns:inkscape="http://www.inkscape.org/namespaces/inkscape"
   inkscape:version="1.1-dev (ddb55ca, 2020-02-02)"
   sodipodi:docname="beaker-svgrepo-com.svg"
   xml:space="preserve"
   style="enable-background:new 0 0 472.55 472.55;"
   viewBox="0 0 472.55 472.55"
   height="472.55px"
   width="472.55px"
   y="0px"
   x="0px"
   id="Capa_1"
   version="1.1"><metadata
   id="metadata159"><rdf:RDF><cc:Work
       rdf:about=""><dc:format>image/svg+xml</dc:format><dc:type
         rdf:resource="http://purl.org/dc/dcmitype/StillImage" /><dc:title></dc:title></cc:Work></rdf:RDF></metadata><defs
   id="defs157"><inkscape:path-effect
   only_selected="false"
   apply_with_weight="true"
   apply_no_weight="true"
   helper_size="0"
   steps="2"
   weight="33.333333"
   lpeversion="1"
   is_visible="true"
   id="path-effect1042"
   effect="bspline" />
	
</defs><sodipodi:namedview
   inkscape:current-layer="Capa_1"
   inkscape:window-maximized="0"
   inkscape:window-y="0"
   inkscape:window-x="0"
   inkscape:cy="264.65276"
   inkscape:cx="194.74377"
   inkscape:zoom="2.2392792"
   showgrid="false"
   id="namedview155"
   inkscape:window-height="768"
   inkscape:window-width="1366"
   inkscape:pageshadow="2"
   inkscape:pageopacity="0"
   guidetolerance="10"
   gridtolerance="10"
   objecttolerance="10"
   borderopacity="1"
   bordercolor="#666666"
   pagecolor="#ffffff" />
<path
   d="M 203.65234 313.0293 C 205.80834 313.0293 207.55664 314.73323 207.55664 316.83008 C 207.55664 318.92112 205.80734 320.625 203.65234 320.625 C 201.49334 320.625 199.73438 318.92112 199.73438 316.83008 C 199.73437 314.72838 201.49334 313.0293 203.65234 313.0293 z "
   style="stroke-width:1"
   id="path120" /><path
   inkscape:original-d="m 127.2731,261.24478 c 12.2073,2.23386 24.41361,4.46672 36.61892,6.69859 12.50528,-4.46482 25.00905,-8.93045 37.51207,-13.39717 20.6926,5.35997 41.38337,11.31416 62.07355,16.96974 5.6577,-7.59088 11.31416,-15.18245 16.96975,-22.77518 7.29516,-1.33875 14.58902,-2.67844 21.88204,-4.01915 10.57009,6.25313 21.13875,12.50502 31.70663,18.75603 6.99744,-0.89216 13.9936,-1.78529 20.9889,-2.67943 2.9782,13.5473 5.95529,27.09305 8.93144,40.63808 0.001,14.88704 0.001,29.77248 0,44.65722 -8.48404,1.78733 -16.96874,3.57358 -25.45462,5.35887 -74.13148,0.14986 -148.26099,0.29872 -222.39299,0.44657 -0.89216,-0.89216 -1.48758,-1.78529 -2.23286,-2.67943 4.46681,-29.3245 8.93244,-58.64883 13.39717,-87.97474 z"
   inkscape:path-effect="#path-effect1042"
   inkscape:connector-curvature="0"
   id="path1040"
   d="m 131.1439,277.02419 c 8.33664,-13.54634 20.54295,-11.31347 32.89796,-12.43016 12.35501,-1.11668 24.85878,-5.58231 41.41903,-4.99691 16.56025,0.58539 37.32675,6.26256 50.50004,5.29483 13.17329,-0.96773 18.82975,-8.55929 25.30558,-13.02519 6.47583,-4.46589 13.76969,-5.80558 22.70144,-3.34895 8.93175,2.45663 19.50041,8.70852 28.28291,11.38754 8.7825,2.67902 15.77866,1.78589 20.76511,8.11311 4.98645,6.32721 7.96354,19.87296 9.45198,34.08892 1.48845,14.21595 1.48845,29.10139 -2.75369,37.43684 -4.24215,8.33546 -12.72684,10.12171 -54.0354,11.08936 -41.30856,0.96766 -115.43807,1.11651 -152.90627,0.7083 -37.46821,-0.40822 -38.15148,-1.22814 -36.29122,-16.33759 1.86025,-15.10944 6.32588,-44.43377 14.66253,-57.9801 z"
   style="fill:#00ffff;stroke:#00ffff;stroke-width:1px;stroke-linecap:butt;stroke-linejoin:miter;stroke-opacity:1" />
<g
   id="g124">
</g>
<g
   id="g126">
</g>
<g
   id="g128">
</g>
<g
   id="g130">
</g>
<g
   id="g132">
</g>
<g
   id="g134">
</g>
<g
   id="g136">
</g>
<g
   id="g138">
</g>
<g
   id="g140">
</g>
<g
   id="g142">
</g>
<g
   id="g144">
</g>
<g
   id="g146">
</g>
<g
   id="g148">
</g>
<g
   id="g150">
</g>
<g
   id="g152">
</g>
<g
   id="g1038"><path
     inkscape:connector-curvature="0"
     id="path177"
     style="fill:#e6e6e6;stroke-width:1"
     d="m 166.33594,209.13281 c -45.58133,24.43817 -74.957034,71.39463 -74.957034,122.88477 0,5.69711 0.357627,11.31257 1.041016,16.83203 H 124.0625 c -0.87746,-5.48622 -1.34961,-11.09844 -1.34961,-16.82227 0,-46.22877 30.19567,-87.83003 75.13867,-103.52929 6.208,-2.17832 10.35742,-7.88896 10.35742,-14.29688 v -5.06836 z m 99.30468,0 v 5.52735 c 0,6.34779 4.06136,12.02796 10.19336,14.24023 44.263,15.98536 74.00391,57.42288 74.00391,103.12695 0,5.72322 -0.46727,11.33574 -1.3457,16.82227 h 31.63867 c 0.68343,-5.51949 1.04102,-11.1349 1.04102,-16.83203 -10e-6,-51.3111 -29.36026,-98.41605 -74.8711,-122.88477 z" /><g
     id="g188"
     transform="matrix(1,0,0,0.7077641,0,61.116114)"
     style="fill:#e6e6e6;stroke-width:1.18865"><path
       d="m 166.33594,209.13281 h 41.87304 V 29.433594 c 0,-8.39033 -7.01806,-15.191406 -15.66406,-15.191406 h -39.80664 c -8.656,0 -15.67187,6.801076 -15.67187,15.191406 0,8.390329 7.01487,15.1875 15.67187,15.1875 h 24.14453 V 203.96875 c -3.61213,1.57724 -7.11331,3.32318 -10.54687,5.16406 z"
       style="fill:#e6e6e6;stroke-width:1.18865"
       id="path181"
       inkscape:connector-curvature="0" /><path
       d="m 281.3125,14.238281 c -8.656,0 -15.67287,6.799124 -15.67188,15.189453 V 209.13281 h 40.66016 c -3.03901,-1.63391 -6.14902,-3.1672 -9.32812,-4.59375 V 44.617188 h 22.20703 c 8.643,0 15.66015,-6.799124 15.66015,-15.189454 0,-8.390329 -7.01615,-15.189453 -15.66015,-15.189453 z"
       style="fill:#e6e6e6;stroke-width:1.18865"
       id="path175"
       inkscape:connector-curvature="0" /></g><rect
     style="fill:#e6e6e6;fill-opacity:1;stroke:#e6e6e6;stroke-width:4;stroke-miterlimit:4;stroke-dasharray:none;paint-order:markers fill stroke;stroke-opacity:1"
     id="rect1019"
     width="283.5939"
     height="23.591675"
     x="94.206207"
     y="348.84961" /></g></svg>
