<?xml version="1.0" encoding="UTF-8" standalone="no"?>
<svg
   xmlns:dc="http://purl.org/dc/elements/1.1/"
   xmlns:cc="http://creativecommons.org/ns#"
   xmlns:rdf="http://www.w3.org/1999/02/22-rdf-syntax-ns#"
   xmlns:svg="http://www.w3.org/2000/svg"
   xmlns="http://www.w3.org/2000/svg"
   xmlns:sodipodi="http://sodipodi.sourceforge.net/DTD/sodipodi-0.dtd"
   xmlns:inkscape="http://www.inkscape.org/namespaces/inkscape"
   inkscape:version="1.1-dev (ddb55ca, 2020-02-02)"
   sodipodi:docname="computer-screen-svgrepo-com.svg"
   xml:space="preserve"
   style="enable-background:new 0 0 436.48 436.48;"
   viewBox="0 0 436.48 436.48"
   height="436.48px"
   width="436.48px"
   y="0px"
   x="0px"
   id="Capa_1"
   version="1.1"><metadata
   id="metadata141"><rdf:RDF><cc:Work
       rdf:about=""><dc:format>image/svg+xml</dc:format><dc:type
         rdf:resource="http://purl.org/dc/dcmitype/StillImage" /></cc:Work></rdf:RDF></metadata><defs
   id="defs139" /><sodipodi:namedview
   inkscape:current-layer="Capa_1"
   inkscape:window-maximized="0"
   inkscape:window-y="0"
   inkscape:window-x="0"
   inkscape:cy="218.24001"
   inkscape:cx="218.24001"
   inkscape:zoom="1.2119684"
   showgrid="false"
   id="namedview137"
   inkscape:window-height="645"
   inkscape:window-width="977"
   inkscape:pageshadow="2"
   inkscape:pageopacity="0"
   guidetolerance="10"
   gridtolerance="10"
   objecttolerance="10"
   borderopacity="1"
   bordercolor="#666666"
   pagecolor="#ffffff" />
<g
   style="fill:#b3b3b3"
   id="g104">
	<path
   style="fill:#b3b3b3"
   id="path102"
   d="M404.98,39.903H31.5c-17.369,0-31.5,14.131-31.5,31.5v221.988c0,17.369,14.131,31.5,31.5,31.5h144.35v29.688h-33.355   c-8.284,0-15,6.715-15,15v11.998c0,8.283,6.716,15,15,15h151.49c8.284,0,15-6.717,15-15v-11.998c0-8.285-6.716-15-15-15h-33.354   v-29.688h144.35c17.369,0,31.5-14.131,31.5-31.5V71.403C436.48,54.034,422.35,39.903,404.98,39.903z M395.24,287.017h-354V77.772   h354V287.017z" />
</g>
<g
   id="g106">
</g>
<g
   id="g108">
</g>
<g
   id="g110">
</g>
<g
   id="g112">
</g>
<g
   id="g114">
</g>
<g
   id="g116">
</g>
<g
   id="g118">
</g>
<g
   id="g120">
</g>
<g
   id="g122">
</g>
<g
   id="g124">
</g>
<g
   id="g126">
</g>
<g
   id="g128">
</g>
<g
   id="g130">
</g>
<g
   id="g132">
</g>
<g
   id="g134">
</g>
</svg>
