<?xml version="1.0" encoding="UTF-8" standalone="no"?>
<svg
   xmlns:dc="http://purl.org/dc/elements/1.1/"
   xmlns:cc="http://creativecommons.org/ns#"
   xmlns:rdf="http://www.w3.org/1999/02/22-rdf-syntax-ns#"
   xmlns:svg="http://www.w3.org/2000/svg"
   xmlns="http://www.w3.org/2000/svg"
   xmlns:sodipodi="http://sodipodi.sourceforge.net/DTD/sodipodi-0.dtd"
   xmlns:inkscape="http://www.inkscape.org/namespaces/inkscape"
   version="1.1"
   id="Capa_1"
   x="0px"
   y="0px"
   viewBox="0 0 489.709 489.709"
   style="enable-background:new 0 0 489.709 489.709;"
   xml:space="preserve"
   sodipodi:docname="psychology-book-svgrepo-com.svg"
   inkscape:version="1.1-dev (ddb55ca, 2020-02-02)"><metadata
   id="metadata385"><rdf:RDF><cc:Work
       rdf:about=""><dc:format>image/svg+xml</dc:format><dc:type
         rdf:resource="http://purl.org/dc/dcmitype/StillImage" /></cc:Work></rdf:RDF></metadata><defs
   id="defs383"><rect
   id="rect1104"
   height="92.122584"
   width="251.3468"
   y="25.020949"
   x="156.38093" /><inkscape:path-effect
   lpeversion="1"
   is_visible="true"
   id="path-effect993"
   effect="spiro" /><inkscape:path-effect
   lpeversion="1"
   is_visible="true"
   id="path-effect989"
   effect="spiro" /><inkscape:path-effect
   lpeversion="1"
   is_visible="true"
   id="path-effect985"
   effect="spiro" /><inkscape:path-effect
   effect="bspline"
   id="path-effect979"
   is_visible="true"
   lpeversion="1"
   weight="33.333333"
   steps="2"
   helper_size="0"
   apply_no_weight="true"
   apply_with_weight="true"
   only_selected="false" /><inkscape:perspective
   id="perspective963"
   inkscape:persp3d-origin="244.8545 : 163.23633 : 1"
   inkscape:vp_z="489.709 : 244.8545 : 1"
   inkscape:vp_y="0 : 1000 : 0"
   inkscape:vp_x="0 : 244.8545 : 1"
   sodipodi:type="inkscape:persp3d" /><inkscape:path-effect
   lpeversion="1"
   is_visible="true"
   id="path-effect961"
   effect="spiro" /><inkscape:path-effect
   effect="bspline"
   id="path-effect957"
   is_visible="true"
   lpeversion="1"
   weight="33.333333"
   steps="2"
   helper_size="0"
   apply_no_weight="true"
   apply_with_weight="true"
   only_selected="false" /><inkscape:path-effect
   only_selected="false"
   apply_with_weight="true"
   apply_no_weight="true"
   helper_size="0"
   steps="2"
   weight="33.333333"
   lpeversion="1"
   is_visible="true"
   id="path-effect953"
   effect="bspline" /><inkscape:path-effect
   only_selected="false"
   apply_with_weight="true"
   apply_no_weight="true"
   helper_size="0"
   steps="2"
   weight="33.333333"
   lpeversion="1"
   is_visible="true"
   id="path-effect949"
   effect="bspline" /><inkscape:path-effect
   only_selected="false"
   apply_with_weight="true"
   apply_no_weight="true"
   helper_size="0"
   steps="2"
   weight="33.333333"
   lpeversion="1"
   is_visible="true"
   id="path-effect902"
   effect="bspline" />
	
	
	
	
	
</defs><sodipodi:namedview
   pagecolor="#ffffff"
   bordercolor="#666666"
   borderopacity="1"
   objecttolerance="10"
   gridtolerance="10"
   guidetolerance="10"
   inkscape:pageopacity="0"
   inkscape:pageshadow="2"
   inkscape:window-width="1366"
   inkscape:window-height="768"
   id="namedview381"
   showgrid="false"
   inkscape:zoom="1.7585264"
   inkscape:cx="368.30247"
   inkscape:cy="263.9134"
   inkscape:window-x="0"
   inkscape:window-y="0"
   inkscape:window-maximized="0"
   inkscape:current-layer="Capa_1" />

<g
   id="g350">
</g>
<g
   id="g352">
</g>
<g
   id="g354">
</g>
<g
   id="g356">
</g>
<g
   id="g358">
</g>
<g
   id="g360">
</g>
<g
   id="g362">
</g>
<g
   id="g364">
</g>
<g
   id="g366">
</g>
<g
   id="g368">
</g>
<g
   id="g370">
</g>
<g
   id="g372">
</g>
<g
   id="g374">
</g>
<g
   id="g376">
</g>
<g
   id="g378">
</g>
<g
   id="g1272"><g
     id="g1189"><g
       id="g1100"><g
         id="g1290"><g
           id="g1273"
           style="fill:#ff0000"><g
             id="g1256"
             style="fill:#ff0000"><rect
               style="fill:#ff0000;stroke:#ffffff;stroke-width:1.5;stroke-opacity:1"
               id="rect1244"
               width="372.97717"
               height="459.57645"
               x="66.878662"
               y="13.7187" /><rect
               style="fill:#ff0000;stroke:#ffffff;stroke-width:1.5;stroke-opacity:0"
               id="rect1246"
               width="358.40103"
               height="14.57612"
               x="78.025108"
               y="7.7167687"
               ry="0" /><rect
               style="fill:#ff0000;stroke:#ffffff;stroke-width:1.5;stroke-opacity:0"
               id="rect1248"
               width="66.02124"
               height="395.27005"
               x="54.874802"
               y="42.870937" /><rect
               style="fill:#ff0000;stroke:#ffffff;stroke-width:1.5;stroke-opacity:0"
               id="rect1250"
               width="335.60825"
               height="8.1286764"
               x="97.745743"
               y="471.58032" /></g><ellipse
             ry="30.438366"
             rx="32.581913"
             cy="37.297718"
             cx="85.741875"
             id="path1258"
             style="fill:#ff0000;stroke:#ffffff;stroke-width:1.5;stroke-opacity:0" /><path
             d="m 146.61862,443.71423 a 45.443195,35.582878 0 0 1 -41.20933,35.42811 45.443195,35.582878 0 0 1 -48.888137,-28.82655 45.443195,35.582878 0 0 1 32.099665,-40.79955 45.443195,35.582878 0 0 1 54.869492,21.22409"
             sodipodi:arc-type="arc"
             sodipodi:open="true"
             sodipodi:end="5.9099704"
             sodipodi:start="0"
             sodipodi:ry="35.582878"
             sodipodi:rx="45.443195"
             sodipodi:cy="443.71423"
             sodipodi:cx="101.17542"
             sodipodi:type="arc"
             id="path1264"
             style="fill:#ff0000;stroke:#ffffff;stroke-width:1.49999;stroke-opacity:0" /></g><g
           id="g1240"><g
             style="fill:#ffffff"
             id="g1227"><ellipse
               style="fill:#ffffff;stroke:#ffffff;stroke-width:1.5;stroke-opacity:0"
               id="path387"
               cx="104.73812"
               cy="431.87469"
               rx="36.726353"
               ry="35.366116" /><rect
               style="fill:#ffffff;stroke:#ffffff;stroke-width:1.5;stroke-opacity:0"
               id="rect1212"
               width="283.8179"
               height="60.085369"
               x="128.96373"
               y="402.03464" /></g><path
             d="m 90.246,423.534 c 0,2.762 2.239,5 5,5 h 294.476 c 2.761,0 5,-2.238 5,-5 0,-2.762 -2.239,-5 -5,-5 H 95.246 c -2.761,0 -5,2.238 -5,5 z"
             id="path338"
             inkscape:connector-curvature="0" /><path
             d="M 389.722,437.031 H 95.246 c -2.761,0 -5,2.238 -5,5 0,2.762 2.239,5 5,5 h 294.476 c 2.761,0 5,-2.238 5,-5 0,-2.762 -2.239,-5 -5,-5 z"
             id="path340"
             inkscape:connector-curvature="0" /><path
             d="M 438.354,0 H 91.508 C 66.61,0 46.354,20.256 46.354,45.153 v 386.751 c 0,42.666 29.421,57.805 54.615,57.805 h 337.385 c 2.761,0 5,-2.238 5,-5 V 5 c 0,-2.762 -2.238,-5 -5,-5 z M 100.97,479.709 c -7.45,0 -44.615,-2.305 -44.615,-47.805 V 45.153 C 56.354,25.77 72.124,10 91.508,10 h 4.462 v 312.765 c 0,2.762 2.239,5 5,5 2.761,0 5,-2.238 5,-5 V 10 H 433.355 V 376.547 H 105.97 v -15.384 c 0,-2.762 -2.239,-5 -5,-5 -2.761,0 -5,2.238 -5,5 v 15.384 h -1.683 c -7.628,0 -16.297,3.165 -24.41,8.912 -2.253,1.597 -2.786,4.717 -1.189,6.971 0.975,1.376 2.518,2.11 4.084,2.109 0.999,0 2.009,-0.299 2.886,-0.92 6.437,-4.561 13.053,-7.072 18.628,-7.072 h 339.067 v 10.396 h -20.79 -21.418 -288.412 c -19.277,0 -34.961,15.684 -34.961,34.961 0,19.277 15.684,34.961 34.961,34.961 h 309.831 c 2.761,0 5,-2.238 5,-5 v -54.922 h 15.79 v 72.766 z m 290.176,-72.766 h 16.418 v 49.922 H 102.733 c -13.764,0 -24.961,-11.197 -24.961,-24.961 0,-13.764 11.197,-24.961 24.961,-24.961 z"
             id="path342"
             inkscape:connector-curvature="0" /></g></g><g
         id="g1038"><g
           id="g941"><g
             id="g1395"><g
               id="g1334"
               transform="matrix(1.3298584,0,0,1.1002048,30.905529,112.13362)"
               style="stroke-width:0.826724"><g
                 id="g1323"
                 style="stroke-width:0.826724"><path
                   sodipodi:type="star"
                   style="fill:#ffffff;stroke:#ffffff;stroke-width:1.24009;stroke-opacity:0"
                   id="path1292"
                   sodipodi:sides="5"
                   sodipodi:cx="173.19859"
                   sodipodi:cy="120.03863"
                   sodipodi:r1="112.40364"
                   sodipodi:r2="56.20182"
                   sodipodi:arg1="1.6089457"
                   sodipodi:arg2="2.2372643"
                   inkscape:flatsided="false"
                   inkscape:rounded="0"
                   inkscape:randomized="0"
                   d="m 168.9115,232.36048 -30.45764,-68.14665 -73.404483,-13.5431 55.399393,-50.02542 -9.80298,-73.99686 64.69635,37.22925 67.34591,-32.189475 -15.41485,73.034355 51.42504,54.10267 -74.22325,7.90847 z"
                   inkscape:transform-center-x="1.3247848"
                   inkscape:transform-center-y="9.4658375" /><path
                   sodipodi:type="star"
                   style="fill:#ffffff;stroke:#ffffff;stroke-width:1.24009;stroke-opacity:0"
                   id="path1296"
                   sodipodi:sides="5"
                   sodipodi:cx="192.91922"
                   sodipodi:cy="122.61088"
                   sodipodi:r1="82.142326"
                   sodipodi:r2="41.071163"
                   sodipodi:arg1="1.3283493"
                   sodipodi:arg2="1.9566678"
                   inkscape:flatsided="false"
                   inkscape:rounded="0"
                   inkscape:randomized="0"
                   d="m 212.63985,202.35082 -35.17845,-41.68871 -54.28536,5.3452 28.77758,-46.33921 -21.85869,-49.976695 52.96397,13.049502 40.77596,-36.232494 3.95595,54.404247 47.05961,27.58378 -50.51906,20.57417 z"
                   inkscape:transform-center-x="-6.0940102"
                   inkscape:transform-center-y="1.8187389" /><path
                   sodipodi:type="star"
                   style="fill:#ffffff;stroke:#ffffff;stroke-width:1.24009;stroke-opacity:0"
                   id="path1298"
                   sodipodi:sides="5"
                   sodipodi:cx="187.7747"
                   sodipodi:cy="114.89412"
                   sodipodi:r1="103.24689"
                   sodipodi:r2="51.623447"
                   sodipodi:arg1="0.56035988"
                   sodipodi:arg2="1.1886784"
                   inkscape:flatsided="false"
                   inkscape:rounded="0"
                   inkscape:randomized="0"
                   d="m 275.23141,169.76892 -68.20702,-6.97459 -44.41311,52.23331 -14.4439,-67.024 -63.401238,-26.0984 59.280208,-34.448522 5.22899,-68.363008 51.08108,45.733646 66.63293,-16.152265 -27.71036,62.713469 z"
                   inkscape:transform-center-x="7.7759261"
                   inkscape:transform-center-y="2.1665552" /><path
                   sodipodi:type="star"
                   style="fill:#ffffff;stroke:#ffffff;stroke-width:1.24009;stroke-opacity:0"
                   id="path1300"
                   sodipodi:sides="5"
                   sodipodi:cx="193.77664"
                   sodipodi:cy="96.030907"
                   sodipodi:r1="63.991249"
                   sodipodi:r2="31.995625"
                   sodipodi:arg1="0.95677715"
                   sodipodi:arg2="1.5850957"
                   inkscape:flatsided="false"
                   inkscape:rounded="0"
                   inkscape:randomized="0"
                   d="m 230.64566,148.33345 -37.32652,-20.31019 -37.89202,19.23454 7.78161,-41.77582 -30.00241,-30.093654 42.13581,-5.50869 19.34951,-37.833436 18.25976,38.371262 41.96107,6.711302 -30.85067,29.223436 z"
                   inkscape:transform-center-x="-0.28275135"
                   inkscape:transform-center-y="-5.8410832" /><path
                   sodipodi:type="star"
                   style="fill:#ffffff;stroke:#ffffff;stroke-width:2.22778;stroke-opacity:0"
                   id="path1302"
                   sodipodi:sides="5"
                   sodipodi:cx="246.07919"
                   sodipodi:cy="206.63792"
                   sodipodi:r1="178.93777"
                   sodipodi:r2="53.60239"
                   sodipodi:arg1="-0.081549469"
                   sodipodi:arg2="0.5467691"
                   inkscape:flatsided="false"
                   inkscape:rounded="0"
                   inkscape:randomized="0"
                   d="M 424.4223,192.06181 291.86683,234.50742 315.05295,371.74803 233.72289,258.7967 110.36421,323.2577 192.65494,211.00433 93.228964,113.6028 225.4175,157.17773 287.32754,32.519283 286.73382,171.70344 Z"
                   inkscape:transform-center-x="3.7230562"
                   inkscape:transform-center-y="1.9404664"
                   transform="matrix(0.52939362,0,0,0.58530083,63.724318,-9.2553504)" /><path
                   sodipodi:type="star"
                   style="fill:#ffffff;stroke:#ffffff;stroke-width:1.24009;stroke-opacity:0"
                   id="path1308"
                   sodipodi:sides="5"
                   sodipodi:cx="137.187"
                   sodipodi:cy="64.306412"
                   sodipodi:r1="11.775175"
                   sodipodi:r2="5.8875875"
                   sodipodi:arg1="1.9156481"
                   sodipodi:arg2="2.5439666"
                   inkscape:flatsided="false"
                   inkscape:rounded="0"
                   inkscape:randomized="0"
                   d="m 133.20631,75.38833 -0.88643,-7.769081 -6.90251,-3.67419 7.11491,-3.243825 1.36137,-7.700069 5.28369,5.764287 7.74388,-1.084714 -3.84941,6.80635 3.42462,7.029679 -7.66276,-1.557732 z"
                   inkscape:transform-center-x="1.0177005"
                   inkscape:transform-center-y="-0.11166425" /><path
                   sodipodi:type="star"
                   style="fill:#ffffff;stroke:#ffffff;stroke-width:1.24009;stroke-opacity:0"
                   id="path1314"
                   sodipodi:sides="5"
                   sodipodi:cx="148.33345"
                   sodipodi:cy="138.90184"
                   sodipodi:r1="66.244591"
                   sodipodi:r2="33.122295"
                   sodipodi:arg1="0.42162906"
                   sodipodi:arg2="1.0499476"
                   inkscape:flatsided="false"
                   inkscape:rounded="0"
                   inkscape:randomized="0"
                   d="m 208.77657,166.01227 -43.96092,1.61975 -23.5878,37.13222 -15.12515,-41.30878 -42.603868,-10.95884 34.613058,-27.14999 -2.74284,-43.905159 36.5172,24.529169 40.9087,-16.17604 -12.04419,42.30985 z"
                   inkscape:transform-center-x="2.1957498"
                   inkscape:transform-center-y="4.2010174" /></g><path
                 inkscape:transform-center-y="1.7996576"
                 inkscape:transform-center-x="-6.888881"
                 d="m 196.3489,224.64372 -38.97811,-45.52802 -59.602175,6.29871 31.254815,-51.13932 -24.40851,-54.738634 58.29465,13.922182 44.51689,-40.129045 4.77325,59.743697 51.92147,29.93752 -55.34462,23.00146 z"
                 inkscape:randomized="0"
                 inkscape:rounded="0"
                 inkscape:flatsided="false"
                 sodipodi:arg2="1.9495279"
                 sodipodi:arg1="1.3212094"
                 sodipodi:r2="45.126629"
                 sodipodi:r1="90.253258"
                 sodipodi:cy="137.187"
                 sodipodi:cx="174.05602"
                 sodipodi:sides="5"
                 id="path1294"
                 style="fill:#ffffff;stroke:#ffffff;stroke-width:1.24009;stroke-opacity:0"
                 sodipodi:type="star" /></g><g
               id="g1371"
               transform="matrix(0.90564328,0,0,0.90209779,25.044637,25.728485)"
               style="stroke-width:1.10635"><g
                 id="g1354"
                 transform="matrix(1.3298584,0,0,1.1002048,30.905529,112.13362)"
                 style="stroke:#068e3f;stroke-width:0.91465;stroke-opacity:0"><g
                   id="g1350"
                   style="stroke:#068e3f;stroke-width:0.91465;stroke-opacity:0"><path
                     sodipodi:type="star"
                     style="fill:#ffffff;stroke:#068e3f;stroke-width:1.37199;stroke-opacity:0"
                     id="path1336"
                     sodipodi:sides="5"
                     sodipodi:cx="173.19859"
                     sodipodi:cy="120.03863"
                     sodipodi:r1="112.40364"
                     sodipodi:r2="56.20182"
                     sodipodi:arg1="1.6089457"
                     sodipodi:arg2="2.2372643"
                     inkscape:flatsided="false"
                     inkscape:rounded="0"
                     inkscape:randomized="0"
                     d="m 168.9115,232.36048 -30.45764,-68.14665 -73.404483,-13.5431 55.399393,-50.02542 -9.80298,-73.99686 64.69635,37.22925 67.34591,-32.189475 -15.41485,73.034355 51.42504,54.10267 -74.22325,7.90847 z"
                     inkscape:transform-center-x="1.3247848"
                     inkscape:transform-center-y="9.4658375" /><path
                     sodipodi:type="star"
                     style="fill:#ffffff;stroke:#068e3f;stroke-width:1.37199;stroke-opacity:0"
                     id="path1338"
                     sodipodi:sides="5"
                     sodipodi:cx="192.91922"
                     sodipodi:cy="122.61088"
                     sodipodi:r1="82.142326"
                     sodipodi:r2="41.071163"
                     sodipodi:arg1="1.3283493"
                     sodipodi:arg2="1.9566678"
                     inkscape:flatsided="false"
                     inkscape:rounded="0"
                     inkscape:randomized="0"
                     d="m 212.63985,202.35082 -35.17845,-41.68871 -54.28536,5.3452 28.77758,-46.33921 -21.85869,-49.976695 52.96397,13.049502 40.77596,-36.232494 3.95595,54.404247 47.05961,27.58378 -50.51906,20.57417 z"
                     inkscape:transform-center-x="-6.0940102"
                     inkscape:transform-center-y="1.8187389" /><path
                     sodipodi:type="star"
                     style="fill:#ffffff;stroke:#068e3f;stroke-width:1.37199;stroke-opacity:0"
                     id="path1340"
                     sodipodi:sides="5"
                     sodipodi:cx="187.7747"
                     sodipodi:cy="114.89412"
                     sodipodi:r1="103.24689"
                     sodipodi:r2="51.623447"
                     sodipodi:arg1="0.56035988"
                     sodipodi:arg2="1.1886784"
                     inkscape:flatsided="false"
                     inkscape:rounded="0"
                     inkscape:randomized="0"
                     d="m 275.23141,169.76892 -68.20702,-6.97459 -44.41311,52.23331 -14.4439,-67.024 -63.401238,-26.0984 59.280208,-34.448522 5.22899,-68.363008 51.08108,45.733646 66.63293,-16.152265 -27.71036,62.713469 z"
                     inkscape:transform-center-x="7.7759261"
                     inkscape:transform-center-y="2.1665552" /><path
                     sodipodi:type="star"
                     style="fill:#ffffff;stroke:#068e3f;stroke-width:1.37199;stroke-opacity:0"
                     id="path1342"
                     sodipodi:sides="5"
                     sodipodi:cx="193.77664"
                     sodipodi:cy="96.030907"
                     sodipodi:r1="63.991249"
                     sodipodi:r2="31.995625"
                     sodipodi:arg1="0.95677715"
                     sodipodi:arg2="1.5850957"
                     inkscape:flatsided="false"
                     inkscape:rounded="0"
                     inkscape:randomized="0"
                     d="m 230.64566,148.33345 -37.32652,-20.31019 -37.89202,19.23454 7.78161,-41.77582 -30.00241,-30.093654 42.13581,-5.50869 19.34951,-37.833436 18.25976,38.371262 41.96107,6.711302 -30.85067,29.223436 z"
                     inkscape:transform-center-x="-0.28275135"
                     inkscape:transform-center-y="-5.8410832" /><path
                     sodipodi:type="star"
                     style="fill:#ffffff;stroke:#068e3f;stroke-width:2.46472;stroke-opacity:0"
                     id="path1344"
                     sodipodi:sides="5"
                     sodipodi:cx="246.07919"
                     sodipodi:cy="206.63792"
                     sodipodi:r1="178.93777"
                     sodipodi:r2="53.60239"
                     sodipodi:arg1="-0.081549469"
                     sodipodi:arg2="0.5467691"
                     inkscape:flatsided="false"
                     inkscape:rounded="0"
                     inkscape:randomized="0"
                     d="M 424.4223,192.06181 291.86683,234.50742 315.05295,371.74803 233.72289,258.7967 110.36421,323.2577 192.65494,211.00433 93.228964,113.6028 225.4175,157.17773 287.32754,32.519283 286.73382,171.70344 Z"
                     inkscape:transform-center-x="3.7230562"
                     inkscape:transform-center-y="1.9404664"
                     transform="matrix(0.52939362,0,0,0.58530083,63.724318,-9.2553504)" /><path
                     sodipodi:type="star"
                     style="fill:#ffffff;stroke:#068e3f;stroke-width:1.37199;stroke-opacity:0"
                     id="path1346"
                     sodipodi:sides="5"
                     sodipodi:cx="137.187"
                     sodipodi:cy="64.306412"
                     sodipodi:r1="11.775175"
                     sodipodi:r2="5.8875875"
                     sodipodi:arg1="1.9156481"
                     sodipodi:arg2="2.5439666"
                     inkscape:flatsided="false"
                     inkscape:rounded="0"
                     inkscape:randomized="0"
                     d="m 133.20631,75.38833 -0.88643,-7.769081 -6.90251,-3.67419 7.11491,-3.243825 1.36137,-7.700069 5.28369,5.764287 7.74388,-1.084714 -3.84941,6.80635 3.42462,7.029679 -7.66276,-1.557732 z"
                     inkscape:transform-center-x="1.0177005"
                     inkscape:transform-center-y="-0.11166425" /><path
                     sodipodi:type="star"
                     style="fill:#ffffff;stroke:#068e3f;stroke-width:1.37199;stroke-opacity:0"
                     id="path1348"
                     sodipodi:sides="5"
                     sodipodi:cx="148.33345"
                     sodipodi:cy="138.90184"
                     sodipodi:r1="66.244591"
                     sodipodi:r2="33.122295"
                     sodipodi:arg1="0.42162906"
                     sodipodi:arg2="1.0499476"
                     inkscape:flatsided="false"
                     inkscape:rounded="0"
                     inkscape:randomized="0"
                     d="m 208.77657,166.01227 -43.96092,1.61975 -23.5878,37.13222 -15.12515,-41.30878 -42.603868,-10.95884 34.613058,-27.14999 -2.74284,-43.905159 36.5172,24.529169 40.9087,-16.17604 -12.04419,42.30985 z"
                     inkscape:transform-center-x="2.1957498"
                     inkscape:transform-center-y="4.2010174" /></g><path
                   inkscape:transform-center-y="1.7996576"
                   inkscape:transform-center-x="-6.888881"
                   d="m 196.3489,224.64372 -38.97811,-45.52802 -59.602175,6.29871 31.254815,-51.13932 -24.40851,-54.738634 58.29465,13.922182 44.51689,-40.129045 4.77325,59.743697 51.92147,29.93752 -55.34462,23.00146 z"
                   inkscape:randomized="0"
                   inkscape:rounded="0"
                   inkscape:flatsided="false"
                   sodipodi:arg2="1.9495279"
                   sodipodi:arg1="1.3212094"
                   sodipodi:r2="45.126629"
                   sodipodi:r1="90.253258"
                   sodipodi:cy="137.187"
                   sodipodi:cx="174.05602"
                   sodipodi:sides="5"
                   id="path1352"
                   style="fill:#ffffff;stroke:#068e3f;stroke-width:1.37199;stroke-opacity:0"
                   sodipodi:type="star" /></g><path
                 inkscape:connector-curvature="0"
                 id="path1358"
                 d="m 117.41199,277.90228 36.29292,-26.96551 -10.07242,-4.68242 39.53662,-18.39787 -13.14055,-28.21647 19.52446,4.64511 -11.50426,-62.83275 48.33451,23.05608 3.03732,-31.36784 47.05182,35.2964 13.34544,-21.04601 7.77057,12.20675 20.34535,-36.70609 -0.21148,37.68823 35.92398,-13.58273 -5.96871,26.35055 38.286,-7.66152 -27.48246,51.85782 55.96992,8.08518 -46.14852,14.01297 28.11517,13.86386 -24.18661,8.23429 29.30367,25.13362 -13.58943,0.89309 8.97904,11.14718 -68.39851,-5.74541 8.92714,48.16949 -19.23961,-23.61599 -4.52694,17.03867 -13.15158,-11.14583 -8.51307,35.67258 -19.96899,-17.99406 -16.51887,26.48409 -26.20422,-45.14475 -10.61111,14.78323 -12.46918,-25.58677 -45.32546,4.29799 19.78982,-26.88721 z"
                 style="fill:none;stroke:#068e3f;stroke-width:3.31907;stroke-linecap:butt;stroke-linejoin:miter;stroke-miterlimit:4;stroke-dasharray:none;stroke-opacity:1" /></g></g><ellipse
             ry="49.112808"
             rx="34.76511"
             cy="232.99103"
             cx="240.38156"
             id="path1405"
             style="fill:#eb0000;fill-opacity:0;stroke:#000000;stroke-width:3;stroke-miterlimit:4;stroke-dasharray:none;stroke-opacity:1" /><path
             style="fill:none;stroke:#000000;stroke-width:3;stroke-linecap:butt;stroke-linejoin:miter;stroke-opacity:1;stroke-miterlimit:4;stroke-dasharray:none"
             d="m 224.71591,276.42045 -1.70455,13.06819 -7.38636,20.17045"
             id="path69"
             inkscape:connector-curvature="0" /><path
             style="fill:none;stroke:#000000;stroke-width:3;stroke-linecap:butt;stroke-linejoin:miter;stroke-opacity:1;stroke-miterlimit:4;stroke-dasharray:none"
             d="m 251.70455,279.26136 -0.1703,13.99611 6.4203,47.93571 1.70454,8.23864"
             id="path71"
             inkscape:connector-curvature="0" /><g
             id="g910"
             style="stroke-width:3;stroke-miterlimit:4;stroke-dasharray:none"><path
               inkscape:connector-curvature="0"
               id="path898"
               d="m 254.65134,311.72186 19.99415,-23.51449"
               style="fill:none;stroke:#000000;stroke-width:3;stroke-linecap:butt;stroke-linejoin:miter;stroke-opacity:1;stroke-miterlimit:4;stroke-dasharray:none" /><path
               inkscape:original-d="m 267.05938,295.55137 c -0.72708,-0.70205 -1.45527,-1.40516 -2.18456,-2.10934 0.67752,-1.5147 1.35393,-3.03039 2.02925,-4.54718"
               inkscape:path-effect="#path-effect902"
               inkscape:connector-curvature="0"
               id="path900"
               d="m 267.05938,295.55137 c -0.72708,-0.70205 -1.45527,-1.40516 -1.48181,-2.51489 -0.0265,-1.10973 0.64987,-2.62542 1.3265,-4.14163"
               style="fill:none;stroke:#000000;stroke-width:3;stroke-linecap:butt;stroke-linejoin:miter;stroke-opacity:1;paint-order:markers fill stroke;stroke-miterlimit:4;stroke-dasharray:none" /></g></g><path
           inkscape:connector-curvature="0"
           id="path943"
           d="m 219.40278,209.73227 7.72994,0.43117 5.05419,4.74284"
           style="fill:none;stroke:#000000;stroke-width:1px;stroke-linecap:butt;stroke-linejoin:miter;stroke-opacity:1" /><path
           style="fill:none;stroke:#000000;stroke-width:1px;stroke-linecap:butt;stroke-linejoin:miter;stroke-opacity:1"
           d="m 256.89452,209.89904 -7.48009,0.40243 -4.89082,4.42664"
           id="path945"
           inkscape:connector-curvature="0" /><path
           inkscape:original-d="m 219.91952,251.50905 c 12.87826,0.13514 25.75552,0.26928 38.63179,0.40242 12.87626,0.13314 0.13514,-1.47452 0.20121,-2.21328"
           inkscape:path-effect="#path-effect961"
           inkscape:connector-curvature="0"
           id="path959"
           d="m 219.91952,251.50905 c 0.58939,4.62165 2.8999,9.00365 6.38045,12.10086 3.48056,3.09721 8.10129,4.88305 12.76012,4.93158 4.65882,0.0485 9.31575,-1.64067 12.86007,-4.6647 3.54433,-3.02404 5.94562,-7.35695 6.63115,-11.96532 0.10906,-0.73314 0.17628,-1.4725 0.20121,-2.21328"
           style="fill:none;stroke:#000000;stroke-width:1px;stroke-linecap:butt;stroke-linejoin:miter;stroke-opacity:1" /><ellipse
           ry="1.1317466"
           rx="0.99202931"
           cy="229.56151"
           cx="240.30214"
           id="path965"
           style="fill:#000000;fill-opacity:1;stroke:#000000;stroke-width:3;stroke-miterlimit:4;stroke-dasharray:none;stroke-opacity:1;paint-order:markers fill stroke" /><g
           id="g971"><path
             style="fill:#e6a19c;fill-opacity:1;stroke:#000000;stroke-width:1px;stroke-linecap:butt;stroke-linejoin:miter;stroke-opacity:1"
             d="m 219.81849,215.27585 c 0.66862,-0.59255 2.71788,-0.22831 4.36626,0.2272 1.64837,0.45552 2.89572,1.00185 3.83085,1.9129 0.93513,0.91105 1.55881,2.18584 1.2024,3.04995 -0.35642,0.86411 -1.69288,1.3194 -3.07352,1.36525 -1.38063,0.0459 -2.80618,-0.31837 -3.74201,-0.86413 -0.93584,-0.54577 -1.38133,-1.27423 -1.96058,-2.41245 -0.57926,-1.13822 -1.29203,-2.68616 -0.6234,-3.27872 z"
             id="path951"
             inkscape:connector-curvature="0"
             inkscape:path-effect="#path-effect953"
             inkscape:original-d="m 218.43633,214.3188 c 2.05059,0.36558 4.09985,0.72982 6.14777,1.0927 1.24874,0.54771 2.49609,1.09405 3.74214,1.63904 0.62503,1.2762 1.2487,2.55099 1.87106,3.82443 -1.33517,0.45665 -2.67163,0.91194 -4.00942,1.36588 -1.42428,-0.36288 -2.84982,-0.72711 -4.27672,-1.0927 -0.44417,-0.72712 -0.88966,-1.45558 -1.33647,-2.1854 -0.71148,-1.54666 -1.42425,-3.09461 -2.13836,-4.64395 z" /><ellipse
             style="fill:#000000;fill-opacity:1;stroke:#000000;stroke-width:3;stroke-miterlimit:4;stroke-dasharray:none;stroke-opacity:1;paint-order:markers fill stroke"
             id="path967"
             cx="223.68651"
             cy="218.60771"
             rx="0.83187389"
             ry="1.8826619" /></g><g
           transform="matrix(-1,0,0,1,477.50384,0.3502627)"
           id="g977"><path
             inkscape:original-d="m 218.43633,214.3188 c 2.05059,0.36558 4.09985,0.72982 6.14777,1.0927 1.24874,0.54771 2.49609,1.09405 3.74214,1.63904 0.62503,1.2762 1.2487,2.55099 1.87106,3.82443 -1.33517,0.45665 -2.67163,0.91194 -4.00942,1.36588 -1.42428,-0.36288 -2.84982,-0.72711 -4.27672,-1.0927 -0.44417,-0.72712 -0.88966,-1.45558 -1.33647,-2.1854 -0.71148,-1.54666 -1.42425,-3.09461 -2.13836,-4.64395 z"
             inkscape:path-effect="#path-effect979"
             inkscape:connector-curvature="0"
             id="path973"
             d="m 219.81849,215.27585 c 0.66862,-0.59255 2.71788,-0.22831 4.36626,0.2272 1.64837,0.45552 2.89572,1.00185 3.83085,1.9129 0.93513,0.91105 1.55881,2.18584 1.2024,3.04995 -0.35642,0.86411 -1.69288,1.3194 -3.07352,1.36525 -1.38063,0.0459 -2.80618,-0.31837 -3.74201,-0.86413 -0.93584,-0.54577 -1.38133,-1.27423 -1.96058,-2.41245 -0.57926,-1.13822 -1.29203,-2.68616 -0.6234,-3.27872 z"
             style="fill:#e6a19c;fill-opacity:1;stroke:#000000;stroke-width:1px;stroke-linecap:butt;stroke-linejoin:miter;stroke-opacity:1" /><ellipse
             ry="1.8826619"
             rx="0.83187389"
             cy="218.60771"
             cx="223.68651"
             id="ellipse975"
             style="fill:#000000;fill-opacity:1;stroke:#000000;stroke-width:3;stroke-miterlimit:4;stroke-dasharray:none;stroke-opacity:1;paint-order:markers fill stroke" /></g><path
           inkscape:original-d="m 238.44133,183.53765 c -0.37845,-2.48002 -0.7579,-4.96105 -1.13835,-7.44308 -0.38045,-2.48203 1.81069,-2.91785 2.71453,-4.37828 0.90385,-1.46043 -2.21733,-2.62597 -3.32749,-3.94046"
           inkscape:path-effect="#path-effect985"
           inkscape:connector-curvature="0"
           id="path983"
           d="m 238.44133,183.53765 c -0.99982,-0.91637 -1.67463,-2.18047 -1.87966,-3.52111 -0.20504,-1.34065 0.0611,-2.74865 0.74131,-3.92197 0.43453,-0.74952 1.0244,-1.39458 1.55242,-2.08146 0.52802,-0.68687 1.00684,-1.44448 1.16211,-2.29682 0.17597,-0.96598 -0.10096,-2.00478 -0.73445,-2.75497 -0.63348,-0.75018 -1.61124,-1.19719 -2.59304,-1.18549"
           style="fill:none;stroke:#000000;stroke-width:1px;stroke-linecap:butt;stroke-linejoin:miter;stroke-opacity:1" /><path
           inkscape:original-d="m 247.11033,183.97548 c -0.0282,-1.54599 -0.0574,-3.09299 -0.0876,-4.64098 -0.0302,-1.54799 2.86148,-0.58277 4.29072,-0.87566 1.42923,-0.29288 -3.20975,-1.63356 -4.81612,-2.45183"
           inkscape:path-effect="#path-effect989"
           inkscape:connector-curvature="0"
           id="path987"
           d="m 247.11033,183.97548 c -0.40486,-0.23003 -0.74842,-0.56685 -0.98642,-0.96707 -0.238,-0.40023 -0.36989,-0.86292 -0.37868,-1.32848 -0.009,-0.46556 0.10555,-0.9329 0.32828,-1.34182 0.22273,-0.40892 0.55333,-0.75847 0.94922,-1.00361 0.62539,-0.38726 1.37858,-0.50256 2.11148,-0.56532 0.73291,-0.0628 1.47958,-0.0833 2.17924,-0.31034 0.7144,-0.23185 1.35717,-0.67959 1.82225,-1.26934 0.46509,-0.58975 0.75066,-1.31918 0.80959,-2.06794 0.0589,-0.74876 -0.10902,-1.51389 -0.47612,-2.16914 -0.36711,-0.65524 -0.93193,-1.19802 -1.60126,-1.53877 -0.66933,-0.34075 -1.44053,-0.47812 -2.18635,-0.38945 -0.74583,0.0887 -1.46332,0.40302 -2.03411,0.8912 -0.57078,0.48818 -0.99259,1.14826 -1.19584,1.87131 -0.20324,0.72305 -0.18712,1.50623 0.0457,2.2203"
           style="fill:none;stroke:#000000;stroke-width:1px;stroke-linecap:butt;stroke-linejoin:miter;stroke-opacity:1" /><path
           inkscape:original-d="m 232.48687,184.32575 c -1.40005,-1.10817 -2.8011,-2.21733 -4.20315,-3.3275 -1.40205,-1.11016 -1.86707,1.2853 -2.80211,1.92645 -0.93503,0.64115 -2.68434,-2.5676 -4.02802,-3.85289"
           inkscape:path-effect="#path-effect993"
           inkscape:connector-curvature="0"
           id="path991"
           d="m 232.48687,184.32575 c 0.10019,-0.53889 0.0506,-1.10483 -0.14181,-1.61808 -0.1924,-0.51324 -0.52706,-0.97233 -0.95682,-1.31255 -0.42975,-0.34022 -0.95337,-0.56061 -1.49707,-0.63012 -0.5437,-0.0695 -1.10593,0.0121 -1.60745,0.23325 -0.52039,0.22949 -0.96416,0.59929 -1.40055,0.96405 -0.43638,0.36475 -0.88065,0.73409 -1.40156,0.9624 -0.54206,0.23758 -1.15487,0.31086 -1.73767,0.20778 -0.58279,-0.10307 -1.13329,-0.3821 -1.56098,-0.79119 -0.42769,-0.4091 -0.73089,-0.94666 -0.85976,-1.5243 -0.12886,-0.57764 -0.0829,-1.1931 0.13039,-1.74518"
           style="fill:none;stroke:#000000;stroke-width:1px;stroke-linecap:butt;stroke-linejoin:miter;stroke-opacity:1" /></g></g><text
       transform="scale(1.0203147,0.98008975)"
       id="text1112"
       y="36.286385"
       x="149.3606"
       style="font-size:24.8949px;line-height:1.25;font-family:'Comic Sans MS';-inkscape-font-specification:'Comic Sans MS';fill:#068e3f;fill-opacity:1;stroke-width:0.999998"
       xml:space="preserve"><tspan
         style="stroke-width:0.999998"
         y="36.286385"
         x="149.3606"
         id="tspan1110"
         sodipodi:role="line">How the </tspan><tspan
         style="stroke-width:0.999998"
         id="tspan1114"
         y="67.405006"
         x="149.3606"
         sodipodi:role="line">Grinch </tspan><tspan
         style="stroke-width:0.999998"
         id="tspan1118"
         y="98.523636"
         x="149.3606"
         sodipodi:role="line">Stole</tspan><tspan
         style="stroke-width:0.999998"
         id="tspan1120"
         y="129.64226"
         x="149.3606"
         sodipodi:role="line">Christmas</tspan><tspan
         style="stroke-width:0.999998"
         id="tspan1116"
         y="160.76088"
         x="149.3606"
         sodipodi:role="line" /></text></g><text
     xml:space="preserve"
     style="font-size:14.7179px;line-height:1.25;font-family:'Comic Sans MS';-inkscape-font-specification:'Comic Sans MS';fill:#068e3f;fill-opacity:1;stroke-width:1"
     x="312.95657"
     y="218.87025"
     id="text1193"
     transform="scale(0.91717589,1.0903034)"><tspan
       sodipodi:role="line"
       x="312.95657"
       y="218.87025"
       id="tspan1195"
       style="stroke-width:1">By</tspan><tspan
       sodipodi:role="line"
       x="312.95657"
       y="237.26762"
       id="tspan1199"
       style="stroke-width:1">Dr. Seuss</tspan></text></g></svg>
