<?xml version="1.0" encoding="UTF-8" standalone="no"?>
<svg
   xmlns:dc="http://purl.org/dc/elements/1.1/"
   xmlns:cc="http://creativecommons.org/ns#"
   xmlns:rdf="http://www.w3.org/1999/02/22-rdf-syntax-ns#"
   xmlns:svg="http://www.w3.org/2000/svg"
   xmlns="http://www.w3.org/2000/svg"
   xmlns:sodipodi="http://sodipodi.sourceforge.net/DTD/sodipodi-0.dtd"
   xmlns:inkscape="http://www.inkscape.org/namespaces/inkscape"
   inkscape:version="1.1-dev (ddb55ca, 2020-02-02)"
   height="160.38075"
   width="378.40869"
   sodipodi:docname="rocketExplode.svg"
   xml:space="preserve"
   viewBox="0 0 378.4087 160.38075"
   y="0px"
   x="0px"
   id="Calque_1"
   version="1.1"><metadata
   id="metadata1032"><rdf:RDF><cc:Work
       rdf:about=""><dc:format>image/svg+xml</dc:format><dc:type
         rdf:resource="http://purl.org/dc/dcmitype/StillImage" /><dc:title></dc:title></cc:Work></rdf:RDF></metadata><defs
   id="defs1030">
	
	

		
		
		
	
		
		
		
	
			
			
			
			
			
		<clipPath
   clipPathUnits="userSpaceOnUse"
   id="clipPath1147"><path
     id="path1149"
     style="fill:#ff0000;fill-opacity:1;fill-rule:nonzero;stroke:none"
     d="M 18.511719,34.486328 V 224.81055 H 104.48242 V 88.972656 c -0.89088,0.01793 -1.9277,-0.169985 -3.11133,-0.666015 -0.0178,-0.0075 -0.0978,-0.04033 -0.12304,-0.05078 -1.19279,0.86014 -3.107171,0.79949 -5.158206,-0.835937 -0.0068,0.01468 -0.01061,0.03028 -0.01758,0.04492 -0.0053,0.01113 -0.04891,-0.001 -0.06836,0.002 -0.14154,0.371532 -0.664711,0.126108 -1.355468,-0.466797 -0.0333,-0.01452 -0.06939,-0.02683 -0.101563,-0.04102 -0.744967,-0.108769 -1.280557,-0.205606 -2.154297,-0.453125 -0.510581,-0.144641 -1.011514,-0.327825 -1.521484,-0.474609 -0.215269,-0.06196 -0.365689,-0.121939 -0.480469,-0.173828 -0.108327,0.0064 -0.256777,0.01319 -0.330078,0.01953 0.0032,-0.06295 0.0088,-0.0896 0.01563,-0.113281 -0.350288,0.01866 -0.701227,0.04075 -1.050781,0.02539 -0.191736,-0.0084 -0.362988,-0.126425 -0.550782,-0.166015 -0.03402,-0.0072 0.114179,0.07311 0.08008,0.06641 C 86.56521,85.299543 88.091209,85.4748 86.689457,85.343796 l -1.330078,-0.304688 c -0.222925,-0.06159 -0.44498,-0.131786 -0.669922,-0.185546 -0.08678,-0.02074 0.342726,0.09444 0.253906,0.08594 C 83.831333,84.83369 82.693643,84.62146 81.595707,84.43169 81.083814,84.28532 80.55939,84.172966 80.058598,83.992237 79.485365,83.785356 78.75114,83.418903 78.16602,83.11333 c -0.04673,-0.0244 -0.855302,-0.459073 -0.894532,-0.470703 -0.08288,-0.02458 0.135785,0.107896 0.203125,0.16211 -0.277673,-0.07407 -0.560498,-0.134377 -0.833984,-0.222657 -0.492609,-0.159014 -0.958945,-0.483115 -1.476563,-0.478515 -0.02343,2.1e-4 0.0094,0.04533 0.01367,0.06836 -0.364347,-0.05786 -0.736987,-0.07994 -1.09375,-0.173828 -0.480809,-0.126541 -0.940025,-0.32261 -1.410156,-0.484375 -0.722682,-0.156999 -1.385249,-0.511994 -2.091797,-0.71875 -0.101693,-0.02976 -0.263566,-0.03399 -0.408203,-0.0293 0.08761,0.0021 0.222784,0.0041 1.328125,-0.125 0.671377,-0.563821 1.801242,-0.840809 2.013672,-1.691406 0.02804,-0.112281 0.04305,-0.215058 0.06641,-0.324219 -2.07159,1.730508 -3.844035,2.219727 -5.080078,1.8125 -1.959797,-0.189316 -3.917116,-0.742912 -5.820312,-1.314453 -0.816364,-0.180301 -1.55753,-0.597442 -2.359375,-0.820313 -0.547284,-0.152111 -0.179293,0.125303 -0.550782,0.125 -0.574861,-4.7e-4 -1.148126,-0.0391 -1.722656,-0.05859 -0.337209,-0.05286 -0.678241,-0.08738 -1.011719,-0.160157 -0.451625,-0.09856 -0.891399,-0.249489 -1.341797,-0.353515 -1.11594,-0.257742 -0.292216,-0.02464 -1.326171,-0.125 -1.258589,-0.122164 -1.422945,-0.217574 -2.705079,-0.535157 -0.540339,0.09081 -1.342023,-0.582558 -2.009765,-0.878906 -0.139059,0.01068 -0.483936,-0.03521 -0.640625,-0.0293 -0.02425,-0.02595 -0.107059,-0.06463 -0.07422,-0.07813 0.196845,-0.08094 0.447845,-0.01107 0.714844,0.107422 0.06077,-0.0047 0.09303,-0.018 0.03516,-0.05469 -0.832221,-0.527572 -1.706956,-0.981821 -2.587891,-1.425781 0.326139,0.413218 0.57456,0.741766 0.994141,1.248046 0.02533,0.03056 -0.07759,0.02269 -0.117187,0.02539 -0.352226,0.0239 -0.705959,0.03002 -1.058594,0.04687 -2.006391,-0.369558 -3.972434,-0.912137 -6,-1.15625 -0.04173,-0.01388 -0.373787,-0.115211 -0.765625,-0.244141 -0.520399,-0.06198 -0.989569,-0.151284 -1.429688,-0.265625 -0.873058,3.86e-4 -1.808663,-0.240811 -2.570312,-0.402343 -0.0997,-0.02969 -0.19913,-0.06016 -0.298828,-0.08984 -0.04033,-0.0035 -0.175157,-0.02425 -0.259766,-0.04687 -0.01114,-0.003 0.016,-0.0089 0.0332,-0.01367 -0.509986,-0.131327 -1.021251,-0.262102 -1.535156,-0.376953 -0.02061,-0.0046 0.0587,0.05663 0.03906,0.04883 -0.375675,-0.148922 -0.743623,-0.317768 -1.115234,-0.476563 -0.832022,-0.508099 -2.83905,-1.599297 -2.289062,-2.753906 0.129727,-0.27234 0.286501,-0.527075 0.457031,-0.771484 -0.430112,-0.761909 -0.356378,-0.947573 0.388672,-2.140625 1.279728,-2.049236 1.851015,-1.596251 2.193359,-0.267578 0.597348,-0.43237 1.20086,-0.854675 1.773438,-1.283203 0.05387,-0.04031 0.121116,-0.05576 0.193359,-0.05469 0.21673,0.0032 0.47814,0.167562 0.556641,0.353516 0.01901,0.04503 0.03579,0.0916 0.05469,0.136718 -0.496099,-0.0095 1.143811,0.0168 0.880859,0.244141 0.199228,0.03851 0.371552,0.05741 0.56836,0.105469 0.201641,0.04923 0.39682,0.118334 0.595703,0.177734 -0.168513,-7e-5 -0.630254,-0.111504 -0.503906,0 0.13064,0.115291 0.347507,0.0061 0.521484,0.01563 1.084867,0.05937 -0.291545,0.06766 -0.5,0.140625 -0.07364,0.02578 -0.141227,0.0652 -0.212891,0.0957 0.427136,0.370714 0.679363,0.856394 0.38086,1.521485 -0.155081,0.345533 -0.357855,0.660696 -0.578125,0.96289 0.132051,0.483833 0.240202,0.971851 0.324219,1.464844 0.07563,-2.011446 0.252513,-3.9564 1.867187,-4.166016 0.284472,-0.03692 0.509249,0.01271 0.691406,0.121094 0.218599,-0.382779 0.471518,-0.769444 0.767579,-1.15625 0.19326,-0.252499 0.37459,-0.515159 0.580078,-0.757812 0.298348,-0.352308 0.631218,-0.673186 0.929687,-1.025391 1.028506,-1.213679 -0.412882,0.387053 0.287109,-0.625 0.380013,-0.549421 0.798593,-1.071389 1.197266,-1.607422 0.366743,-0.328202 0.716058,-0.678631 1.06836,-1.02539 -0.601909,-0.489311 -1.163274,-1.01655 -1.603516,-1.652344 -0.716289,-1.034457 2.519562,-4.486708 3.074219,-5.091797 1.367513,-1.45826 1.628843,-1.706452 2.884765,-3.179688 0.02014,-0.181417 0.172492,-0.395734 0.386719,-0.636718 0.158865,-0.338433 0.314438,-0.684416 0.527344,-0.826172 0.131977,-0.113375 0.368419,-0.229799 0.476562,-0.345703 0.316831,-0.339566 0.62641,-0.686187 0.939453,-1.029297 -1.62253,-0.05985 -3.130001,-0.115484 -5.242187,-0.199219 -0.794481,-0.173266 -2.656482,0.244236 -2.382813,-0.521484 0.653054,-1.827226 1.489827,-3.691087 2.587891,-5.337891 -1.217809,-1.447565 -1.699388,-2.534197 0.0957,-1.68164 0.455272,0.01832 0.725591,0.02723 1.152344,0.04492 0.549873,-0.615371 1.151761,-1.177125 1.818359,-1.65625 2.245491,-1.613968 5.427752,-1.178432 8.189453,-1.320312 2.841267,-0.14597 5.6883,-0.210859 8.535157,-0.205078 0.371809,7.55e-4 0.743435,0.01244 1.115234,0.01563 0.192484,-0.155739 0.402276,-0.30423 0.552734,-0.476563 0.475342,-0.544451 0.965137,-1.077492 1.427735,-1.632812 0.16589,-0.19914 0.317427,-0.409939 0.470703,-0.619141 z m 18.986328,35.128906 c -0.19023,-0.696997 -0.410804,-1.387123 -0.667969,-2.064453 -0.07723,0.04054 -0.154175,0.083 -0.232422,0.121094 0.181167,0.736738 0.181877,1.761379 0.175782,2.794922 0.265098,-0.267925 0.506125,-0.551819 0.724609,-0.851563 z m -0.667969,-2.064453 c 0.284469,-0.149316 0.570778,-0.29457 0.865234,-0.419922 -0.198419,-0.17221 -0.431523,-0.322734 -0.669921,-0.449218 -0.171968,0.04505 -0.355043,0.05239 -0.539063,0.01563 0.116074,0.283439 0.234756,0.566443 0.34375,0.853515 z m -3.0625,-0.351562 c -0.97785,0.707784 -1.920205,1.459652 -2.582031,2.408203 0.317259,0.561998 0.877386,1.395477 1.800781,3.392578 0.07527,0.162785 0.371447,0.296165 0.507813,0.179688 0.350278,-0.299191 0.725119,-0.586203 1.099609,-0.875 -0.360605,-1.507385 -0.47725,-3.751268 -0.826172,-5.105469 z m 1.861328,6.738281 c 0.04677,0.01204 0.09388,0.02306 0.140625,0.03516 -0.04363,-0.01299 -0.08723,-0.02607 -0.130859,-0.03906 -0.0031,0.0013 -0.0047,0.0025 -0.0098,0.0039 z m 0.140625,0.03516 c 0.02863,0.0085 0.05731,0.01687 0.08594,0.02539 0.01124,9.67e-4 0.09587,0.01981 0.07227,0.01367 -0.05254,-0.01366 -0.105649,-0.02546 -0.158203,-0.03906 z m 54.306641,11.791016 c 0.03906,-0.0021 0.07813,5.09e-4 0.117187,-0.002 -0.07281,-0.03736 -0.105781,-0.03784 -0.117187,0.002 z m 0.117187,-0.002 c 0.04594,0.02357 0.106094,0.05449 0.197266,0.0957 0.586427,-0.03442 1.478881,-0.06765 1.082031,-0.101563 -0.425087,-0.03632 -0.852206,-0.01727 -1.279297,0.0059 z M 84.298828,34.486328 c 0.201037,0.08909 0.404788,0.173869 0.597656,0.279297 1.570456,0.858462 3.612599,2.265036 4.490235,4.042969 0.112136,0.0071 0.216847,0.08255 0.318359,0.185547 1.865185,0.433648 3.946076,0.999594 7.121094,1.810547 0.525487,2.219576 2.756897,4.708608 1.576172,6.660156 -0.359069,0.593483 -1.192895,0.992038 -2.253906,1.27539 0.270899,0.410743 0.537596,0.824257 0.80664,1.236328 3.491952,5.385937 -0.98236,-1.467702 2.56836,3.820313 0.128594,0.191511 0.187664,0.433376 0.351562,0.595703 2.01433,1.995017 -0.849792,-2.023601 2.33789,1.978516 0.33787,0.424195 0.50105,0.962583 0.75195,1.443359 0.26024,0.870883 0.55908,1.729964 0.89454,2.574219 0.15764,0.227149 0.1428,0.204836 0.23632,0.339844 0.11558,0.03732 0.27103,0.08956 0.38672,0.126953 V 34.486328 Z m -13.654297,2.666016 c -0.07226,0.01183 -0.211052,0.05929 -0.33789,0.09961 0.0371,8.6e-4 0.07423,-8.83e-4 0.111328,0 0.112652,-0.01882 0.225423,-0.03706 0.33789,-0.05664 -0.0096,-0.03567 -0.04059,-0.05455 -0.111328,-0.04297 z M 55.978516,61.912109 c -0.165472,0.123189 -0.331151,0.245636 -0.496094,0.369141 0.01169,0.0038 0.02347,0.01 0.03516,0.01367 0.300128,0.09525 0.587364,0.225692 0.875,0.355469 -0.143433,-0.25045 -0.292364,-0.507004 -0.414062,-0.738282 z m -19.626954,4.451172 c 0.0108,0.02579 0.02049,0.05231 0.03125,0.07813 0.0605,0.0073 0.147291,0.02943 0.214844,0.03906 -0.08158,-0.03743 -0.171925,-0.0838 -0.246094,-0.117188 z m 3.501954,1.070313 c -1.290024,0.374616 -1.233626,0.608276 -0.601563,2.648437 0.05738,-0.150018 0.126751,-0.294776 0.1875,-0.443359 0.06837,-0.415974 0.178131,-0.844229 0.339844,-1.28711 0.01322,-0.3181 0.03402,-0.627426 0.07422,-0.917968 z m 43.410156,4.023437 c 0.05913,0.02017 0.116369,0.03815 0.175781,0.05859 0.05806,-0.0128 0.115866,-0.01675 0.173828,-0.02734 -0.116593,-0.0093 -0.233025,-0.02163 -0.349609,-0.03125 z m 0.390625,0.0625 c -0.114925,-0.0021 -0.174592,0.0024 -0.201172,0.002 0.08062,0.02776 0.158977,0.05187 0.240234,0.08008 0.08058,0.0023 0.224018,0.08436 0.242188,0.0059 0.01589,-0.06868 -0.135086,-0.08518 -0.28125,-0.08789 z m -45.859375,0.34961 c -0.16323,0.23897 -0.470496,0.442946 -0.642578,0.679687 -0.100155,0.137787 -0.192285,0.249373 -0.285156,0.363281 0.139166,0.908078 0.473623,1.506652 1.24414,1.414063 -0.03838,-0.0112 -0.06798,-0.01574 -0.107422,-0.02734 -0.144648,-0.04256 -0.46521,0.0083 -0.43164,-0.138672 0.150315,-0.658087 0.192819,-1.461745 0.222656,-2.291015 z m 3.730469,2.867187 c -0.038,0.0077 -0.06034,0.01341 -0.09961,0.02148 -0.272516,0.01277 -0.546241,0.04785 -0.818359,0.04297 0.241246,0.155911 0.719971,0.131565 0.917969,-0.06445 z m 25.291015,0.898438 c -0.0075,0.0055 -0.01399,0.0101 -0.02148,0.01563 -1.331238,0.976837 -0.754943,2.200203 0.121094,3.173828 -0.312461,-0.832706 -0.364867,-1.921883 -0.09961,-3.189453 z m 37.666014,4.205078 c -0.37298,0.389908 -0.80153,0.729677 -1.19922,1.097656 0.15833,0.06991 0.3163,0.140614 0.47461,0.210938 0.26335,0.116979 0.48823,0.248925 0.72461,0.376953 z m -1.26758,1.158203 c -0.0107,0.01012 -0.0226,0.01912 -0.0332,0.0293 -0.28685,0.08331 -0.47404,0.143894 -0.70508,0.21875 -0.29873,0.155995 -0.5987,0.25049 -0.90039,0.263672 -0.25746,0.06375 -0.52962,0.09538 -0.8164,0.109375 0.053,0.06219 0.11375,0.123397 0.16406,0.185547 0.6616,-0.195522 1.38538,-0.386443 2.25195,-0.564454 0.0282,-0.03977 0.0557,-0.08571 0.084,-0.125 0.0223,-0.03091 -0.003,-0.07232 -0.0449,-0.117187 z"
     inkscape:connector-curvature="0" /></clipPath></defs><sodipodi:namedview
   inkscape:current-layer="Calque_1"
   inkscape:window-maximized="0"
   inkscape:window-y="0"
   inkscape:window-x="0"
   inkscape:cy="113.48444"
   inkscape:cx="262.42021"
   inkscape:zoom="1.5565182"
   fit-margin-bottom="0"
   fit-margin-right="0"
   fit-margin-left="0"
   fit-margin-top="0"
   showgrid="false"
   id="namedview1028"
   inkscape:window-height="696"
   inkscape:window-width="1366"
   inkscape:pageshadow="2"
   inkscape:pageopacity="0"
   guidetolerance="10"
   gridtolerance="10"
   objecttolerance="10"
   borderopacity="1"
   bordercolor="#666666"
   pagecolor="#ffffff"
   inkscape:snap-global="true" />
<style
   id="style909"
   type="text/css">
	.st0{fill:#957452;}
	.st1{fill:#88573C;}
	.st2{fill:#D6C49A;}
	.st3{fill:#E52627;}
	.st4{fill:#CDCCCC;}
	.st5{fill:#264395;}
	.st6{fill:#1E274A;}
	.st7{fill:#EC6625;}
	.st8{fill:#020203;}
	.st9{fill:#E52521;}
	.st10{fill:#808181;}
	.st11{fill:#FFE324;}
	.st12{fill:#3F4244;}
	.st13{fill:#009F4A;}
	.st14{fill:#343434;}
	.st15{fill:#78170E;}
	.st16{fill:#F0E9D5;}
	.st17{fill:#272531;}
	.st18{fill:#222B56;}
	.st19{fill:#9BD2CC;}
	.st20{fill:#83B143;}
	.st21{fill:#1B1B1B;}
	.st22{fill:#FFFFFF;}
	.st23{fill:#DDD6C3;}
	.st24{fill:#997F64;}
	.st25{fill:#77684B;}
	.st26{fill:#A89877;}
	.st27{fill:#B4B4B4;}
	.st28{fill:#DDCEBB;}
	.st29{fill:#9A2A1A;}
	.st30{fill:#5E1C0C;}
	.st31{fill:#F1CA43;}
	.st32{fill:#A57B46;}
	.st33{fill:#F18538;}
	.st34{fill:#F2AC64;}
	.st35{fill:#FAB42D;}
	.st36{fill:#46494E;}
	.st37{fill:#CF875E;}
	.st38{fill:#E7E6E6;}
	.st39{fill:#1A181D;}
	.st40{fill:#637644;}
	.st41{fill:#9F1E29;}
	.st42{fill:#F9B03D;}
	.st43{fill:#0D71B9;}
	.st44{fill:#E52629;}
	.st45{fill:#676767;}
	.st46{fill:#30358C;}
	.st47{fill:#9A9999;}
	.st48{fill:#3F4798;}
	.st49{fill:#2DABE3;}
	.st50{fill:#C1292E;}
	.st51{fill:#F2F2F2;}
	.st52{fill:#AA7C4C;}
	.st53{fill:#D6A573;}
	.st54{fill:#29ACE1;}
	.st55{fill:#88C05E;}
	.st56{fill:#F39323;}
	.st57{fill:#EB5B28;}
	.st58{fill:#B85965;}
	.st59{fill:#A67D52;}
	.st60{fill:#8C633A;}
	.st61{fill:#009245;}
	.st62{fill:#066938;}
	.st63{fill:#7D252D;}
	.st64{fill:#95D3E3;}
	.st65{fill:#603914;}
	.st66{fill:#EFC9AF;}
	.st67{fill:#D987B8;}
	.st68{fill:#8FC14D;}
	.st69{fill:#C69C6C;}
	.st70{fill:#2BADE1;}
	.st71{fill:#A4C958;}
	.st72{fill:#754D24;}
	.st73{fill:#35AE73;}
	.st74{fill:#E0B99E;}
	.st75{fill:#BDCCD4;}
	.st76{fill:#0C0D0D;}
	.st77{fill:#F4E152;}
	.st78{fill:#1E1911;}
	.st79{fill:#A1BD4F;}
	.st80{fill:#CBE6DC;}
	.st81{fill:#B5DCCE;}
	.st82{fill:#1F1D1B;}
	.st83{fill:#746458;}
	.st84{fill:#C7B29A;}
	.st85{fill:#998675;}
	.st86{fill:#428540;}
	.st87{fill:#E3E5E3;}
	.st88{fill:#161617;}
	.st89{fill:#1E1F1E;}
	.st90{fill:#474847;}
	.st91{fill:#191A19;}
	.st92{fill:#4B2C15;}
	.st93{fill:#92552A;}
	.st94{fill:#7EA847;}
	.st95{fill:#D59E2B;}
	.st96{fill:#807E79;}
	.st97{fill:#E5B744;}
	.st98{fill:#8EC045;}
	.st99{fill:#3B569A;}
	.st100{fill:#A1B7E0;}
	.st101{fill:#8FC9CC;}
	.st102{fill:#9ED1CA;}
	.st103{fill:#81AAA9;}
	.st104{fill:#E1783D;}
	.st105{fill:#64328A;}
	.st106{fill:#DEDEA5;}
	.st107{fill:#754997;}
	.st108{fill:#EE6F43;}
	.st109{fill:#A6CB67;}
	.st110{fill:#8FB7C0;}
	.st111{fill:#E2E1DF;}
	.st112{fill:#2C3E70;}
	.st113{fill:#D9BF96;}
	.st114{fill:#9C6941;}
	.st115{fill:#61605E;}
	.st116{fill:#9C9A99;}
	.st117{fill:#245F3D;}
	.st118{fill:#191713;}
	.st119{fill:#C39A62;}
	.st120{fill:#A17C4F;}
	.st121{fill:#F39200;}
	.st122{fill:#432918;}
	.st123{fill:#B17F4A;}
	.st124{fill:#FFCE1E;}
	.st125{fill:#BE1622;}
	.st126{fill:#3AAA35;}
	.st127{fill:#911825;}
	.st128{fill:#009FE3;}
	.st129{fill:#E94E1B;}
	.st130{fill:#FFCC03;}
	.st131{fill:#95C11F;}
	.st132{fill:#00A19A;}
	.st133{fill:#683C11;}
	.st134{fill:#878787;}
	.st135{fill:#634E42;}
	.st136{fill:#CBBBA0;}
	.st137{fill:#7B5B41;}
	.st138{fill:#493E36;}
	.st139{fill:#78A62C;}
	.st140{fill:#2C8535;}
	.st141{fill:#F9B233;}
	.st142{fill:none;}
	.st143{fill:#CA9E67;}
	.st144{fill:#E30613;}
	.st145{fill:#C6C6C6;}
	.st146{fill:#575756;}
	.st147{fill:#7B6A58;}
	.st148{fill:#A3C5D7;}
	.st149{fill:#332C25;}
	.st150{fill:#29235C;}
	.st151{fill:#E6332A;}
	.st152{fill:#738D93;}
	.st153{fill:#C87B31;}
	.st154{fill:#5BBCA7;}
	.st155{fill:#EF786F;}
	.st156{fill:#EE8D9E;}
	.st157{fill:#A74B56;}
	.st158{fill:#E72D7B;}
	.st159{fill:#E84138;}
	.st160{fill:#3B2315;}
	.st161{fill:#8EC044;}
	.st162{fill:#A1C74B;}
	.st163{fill:#231F20;}
	.st164{fill:#F6D9A7;}
	.st165{fill:#F4A5A6;}
	.st166{fill:#6E6F70;}
	.st167{fill:#F8AF41;}
	.st168{fill:#B79C19;}
	.st169{fill:#EFD101;}
	.st170{fill:#207A97;}
	.st171{fill:#20ACE3;}
	.st172{fill:#C51618;}
	.st173{fill:#C19446;}
	.st174{fill:#9E599F;}
	.st175{fill:#CD95C2;}
	.st176{fill:#F29A26;}
	.st177{fill:#FCCE8D;}
	.st178{fill:#F39B85;}
	.st179{fill:#E52628;}
	.st180{fill:#6BB52D;}
</style>

<g
   transform="rotate(90,201.60386,182.12942)"
   id="g1827"><path
     inkscape:connector-curvature="0"
     id="path999"
     d="m 120.00965,308.50718 -48.999999,-8.2 c -25.5,-4.3 -59.4,60.8 -49.9,62.4 9.5,1.6 35.8,-24.9 61.3,-20.6 1.6,0.3 10.2,1.7 13.3,2.2 25.499999,4.3 41.699999,37.9 51.199999,39.4 9.4,1.6 -1.5,-70.9 -26.9,-75.2 z"
     class="st50" /><g
     transform="translate(12.120277,71.192075)"
     id="g1763"><path
       class="st50"
       d="m 85.973952,-5.588011 -35.099996,-5.9 c -13,-2.2 -24.1,-4.3 -33.8,-6.3 15.3,-36.8 35.2,-49.8 46.599997,-47.9 11.799999,2 21.899999,21.7 22.299999,60.1 z"
       id="path1003"
       inkscape:connector-curvature="0" /><ellipse
       style="fill:#97292e;fill-opacity:1;stroke:#1ecc7a;stroke-width:1.00475;stroke-opacity:0"
       id="path1151"
       cx="51.685638"
       cy="-12.880658"
       rx="35.162403"
       ry="20.898518"
       transform="matrix(0.99820584,0.0598757,0.05241416,0.99862543,0,0)" /></g><g
     transform="rotate(16,-0.51178568,362.12553)"
     id="g1759"><path
       class="st4"
       d="m 99.178101,153.96617 c -5.9,35.3 -32.299996,74.3 -54.299996,70.6 -20.9,-3.5 -30.5,-51.1 -24.7,-85.8 3.8,-22.9 9.3,-41.5 15.4,-56.2 15.3,-36.8 35.2,-49.8 46.599996,-47.9 11.7,2 21.799999,21.6 22.299999,60 0.1,16.3 -1.4,36.1 -5.299999,59.3 z"
       id="path1001"
       inkscape:connector-curvature="0"
       clip-path="url(#clipPath1147)" /><g
       id="g1017"
       transform="translate(-73.921895,-71.23383)">
				<g
   id="g1009">
					<circle
   class="st46"
   cx="134.3"
   cy="217.39999"
   r="25.200001"
   id="circle1005" />
					<circle
   class="st49"
   cx="134.3"
   cy="217.39999"
   r="16"
   id="circle1007" />
				</g>
				<g
   id="g1015">
					<circle
   class="st27"
   cx="140.8"
   cy="179.5"
   r="6.4000001"
   id="circle1011" />
					<circle
   class="st27"
   cx="128.10001"
   cy="255.39999"
   r="6.4000001"
   id="circle1013" />
				</g>
			</g><ellipse
       style="fill:#808080;fill-opacity:1;stroke:#cdcccc;stroke-width:1.50107;stroke-miterlimit:4;stroke-dasharray:none;stroke-opacity:1"
       id="path1720"
       cx="93.078857"
       cy="59.224007"
       rx="33.413319"
       ry="19.333849"
       transform="matrix(0.96467366,0.26344776,-0.31465588,0.94920581,0,0)" /></g></g></svg>
